<?xml version="1.0" encoding="utf-8" ?>
<svg xmlns="http://www.w3.org/2000/svg" xmlns:xlink="http://www.w3.org/1999/xlink" width="1024" height="1024">
	<g>
		<path fill="#6F4C9F" d="M348.671 302.737C370.723 302.507 392.937 302.425 414.312 308.63Q416.023 309.135 417.72 309.682Q419.418 310.229 421.102 310.817Q422.786 311.405 424.455 312.033Q426.125 312.662 427.778 313.331Q429.431 314 431.068 314.709Q432.705 315.419 434.323 316.167Q435.942 316.916 437.543 317.704Q439.143 318.492 440.723 319.319Q442.304 320.146 443.864 321.01Q445.424 321.875 446.962 322.778Q448.5 323.681 450.017 324.62Q451.533 325.56 453.025 326.537Q454.518 327.513 455.986 328.525Q457.455 329.538 458.898 330.586Q460.342 331.634 461.759 332.716Q463.177 333.799 464.567 334.916Q465.958 336.033 467.321 337.183Q468.684 338.333 470.019 339.517Q471.354 340.7 472.659 341.915Q473.965 343.131 475.24 344.377Q476.516 345.624 477.761 346.901Q479.006 348.179 480.219 349.486Q481.433 350.794 482.614 352.13Q483.795 353.466 484.943 354.831Q486.092 356.196 487.206 357.589Q488.321 358.981 489.402 360.4Q490.482 361.819 491.528 363.264Q492.574 364.709 493.584 366.179Q494.594 367.649 495.568 369.143Q496.543 370.637 497.48 372.155Q498.418 373.672 499.318 375.212Q500.218 376.752 501.081 378.313Q501.924 379.863 502.729 381.434Q503.534 383.005 504.3 384.595Q505.066 386.185 505.793 387.793Q506.52 389.401 507.207 391.027Q507.894 392.652 508.541 394.294Q509.189 395.936 509.796 397.594Q510.403 399.251 510.969 400.922Q511.535 402.594 512.06 404.279Q512.585 405.964 513.068 407.661Q513.552 409.359 513.994 411.067Q514.436 412.776 514.835 414.495Q515.235 416.214 515.593 417.942Q515.951 419.671 516.266 421.407Q516.581 423.144 516.854 424.887Q517.126 426.631 517.356 428.381Q517.586 430.131 517.773 431.886Q517.959 433.641 518.103 435.4Q518.247 437.159 518.348 438.921Q518.448 440.683 518.506 442.447Q518.563 444.211 518.578 445.975Q518.592 447.74 518.563 449.505Q518.534 451.27 518.462 453.033Q518.39 454.796 518.275 456.558Q518.159 458.319 518.001 460.076Q517.843 461.834 517.641 463.587Q517.44 465.341 517.195 467.089Q516.951 468.837 516.664 470.578Q516.377 472.319 516.047 474.053Q515.718 475.787 515.346 477.512Q514.974 479.238 514.56 480.953Q514.146 482.669 513.69 484.374Q513.234 486.079 512.736 487.772Q512.239 489.442 511.701 491.1Q511.163 492.758 510.584 494.402Q510.006 496.046 509.387 497.675Q508.768 499.305 508.11 500.918Q507.451 502.532 506.753 504.129Q506.055 505.726 505.318 507.305Q504.581 508.885 503.806 510.445Q503.03 512.006 502.217 513.547Q501.403 515.089 500.552 516.609Q499.7 518.13 498.812 519.63Q497.924 521.129 496.999 522.606Q496.074 524.084 495.113 525.538Q494.152 526.992 493.156 528.422Q492.159 529.852 491.128 531.257Q490.097 532.662 489.032 534.041Q487.967 535.421 486.868 536.773Q485.769 538.126 484.637 539.452Q483.505 540.777 482.341 542.074Q481.177 543.371 479.982 544.639Q478.786 545.908 477.56 547.146Q476.334 548.385 475.077 549.593Q473.821 550.801 472.536 551.977Q471.25 553.154 469.936 554.299Q468.622 555.444 467.28 556.556Q465.938 557.668 464.569 558.747Q463.201 559.826 461.806 560.871Q460.411 561.916 458.991 562.926Q457.571 563.937 456.126 564.912Q454.682 565.887 453.214 566.827Q451.746 567.766 450.255 568.669Q448.765 569.573 447.252 570.439Q445.74 571.305 444.207 572.134Q437.445 575.799 430.306 578.661Q423.167 581.523 415.745 583.543C399.754 587.812 370.13 590.518 354.038 585.633C343.572 582.455 334.686 574.75 329.656 565.095Q329.169 564.171 328.729 563.223Q328.288 562.276 327.895 561.308Q327.501 560.34 327.156 559.354Q326.81 558.368 326.514 557.367Q326.217 556.365 325.97 555.35Q325.723 554.335 325.527 553.309Q325.33 552.283 325.184 551.248Q325.038 550.214 324.943 549.173Q324.848 548.133 324.804 547.089Q324.76 546.045 324.768 545Q324.776 543.956 324.835 542.913Q324.894 541.87 325.004 540.831Q325.114 539.792 325.275 538.76Q325.436 537.727 325.648 536.704Q325.859 535.681 326.121 534.67Q326.383 533.658 326.694 532.661Q327.067 531.49 327.509 530.343Q327.951 529.196 328.46 528.077Q328.968 526.958 329.542 525.871Q330.116 524.784 330.753 523.733Q331.39 522.682 332.089 521.67Q332.787 520.658 333.543 519.69Q334.3 518.721 335.113 517.799Q335.925 516.877 336.791 516.004C350.562 502.081 364.185 505.458 381.635 503.212Q384.263 502.864 386.848 502.278Q389.433 501.693 391.954 500.875Q394.476 500.057 396.912 499.014Q399.349 497.971 401.681 496.711Q402.9 496.054 404.086 495.337Q405.271 494.621 406.42 493.847Q407.568 493.073 408.678 492.244Q409.787 491.415 410.854 490.532Q411.921 489.649 412.943 488.715Q413.966 487.78 414.941 486.797Q415.916 485.813 416.842 484.783Q417.768 483.753 418.641 482.678Q419.515 481.604 420.335 480.488Q421.155 479.371 421.919 478.216Q422.683 477.061 423.39 475.87Q424.096 474.678 424.743 473.454Q425.39 472.229 425.976 470.974Q426.562 469.719 427.085 468.437Q427.609 467.154 428.068 465.848Q428.528 464.542 428.923 463.214C433.331 448.651 432.033 433.188 424.754 419.782C417.03 405.556 404.238 394.691 388.647 390.113C372.341 385.324 355.867 388.005 341.089 395.963C335.984 398.997 331.444 402.359 327.321 406.656C311.64 423.001 310.311 441.461 310.717 462.947C311.815 521.022 310.92 579.243 310.907 637.334L310.923 688.572C310.948 699.225 311.776 710.586 310.1 721.125C308.694 729.964 304.661 737.8 298.408 744.201C290.196 752.611 279.554 756.666 267.868 756.76C255.93 756.856 244.998 752.406 236.559 743.949C230.193 737.57 226.027 729.626 224.786 720.684C222.876 706.93 224.144 689.96 224.175 675.795L224.176 592.532L224.216 303.148C265.656 303.073 307.255 303.827 348.671 302.737Z"/>
		<path fill="#6F4C9F" d="M673.303 302.727Q673.999 302.696 674.696 302.687C696.032 302.298 717.48 303.076 738.837 303.081L770.087 303.026C779.295 303 788.836 302.448 797.886 304.402Q799.421 304.731 800.928 305.167Q802.436 305.603 803.909 306.145Q805.383 306.686 806.814 307.33Q808.246 307.973 809.628 308.716Q811.011 309.459 812.338 310.298Q813.665 311.136 814.929 312.066Q816.194 312.996 817.39 314.012Q818.586 315.029 819.707 316.127C827.675 323.928 832.126 335.065 832.234 346.151C832.347 357.65 827.384 369.307 819.276 377.435C814.374 382.349 808.098 386.057 801.323 387.67C788.127 390.813 773.087 389.412 759.574 389.394L688.108 388.991C669.909 389 652.639 390.615 639.208 404.261C623.745 419.97 624.359 439.829 624.399 460.364L624.488 491.874C652.451 486.563 679.177 486.548 707.225 491.106C723.749 493.791 740.067 497.276 756.743 499.031C788.354 502.357 818.211 499.868 848.867 491.682L843.325 494.702C809.832 514.457 771.295 517.657 733.455 513.478C698.017 509.564 667.043 502.962 631.347 510.416C591.937 518.645 559.342 543.481 537.565 576.799Q537.066 527.989 537.108 479.178C537.078 455.824 535.138 430.732 540.485 407.9C545.65 385.849 556.205 366.314 571.276 349.449C598.618 318.854 632.925 305.034 673.303 302.727Z"/>
		<path fill="#6F4C9F" d="M803.328 548.019L804.097 548.219C799.956 552.597 789.705 557.464 784.064 560.255C759.525 572.391 732.974 577.018 705.749 576.444C691.693 576.147 677.491 575.221 663.457 576.348C650.161 577.416 637.654 581.023 624.989 584.947Q624.456 626.737 624.612 668.53C624.664 685.425 626.634 708.343 623.232 724.518C621.798 731.333 618.018 737.629 613.353 742.737C605.526 751.308 594.934 756.101 583.369 756.58C570.398 757.117 559.51 752.191 550.038 743.579C544.602 737.795 540.669 731.1 538.733 723.365C535.889 712.002 537.457 698.896 537.487 687.242L537.554 635.235C571.361 583.684 612.229 556.091 676.172 557.271C697.35 557.662 718.317 560.813 739.55 560C761.076 559.176 782.889 554.707 803.328 548.019Z"/>
		<path fill="#6F4C9F" d="M825.547 520.548L826.14 520.623L825.952 521.292C817.944 527.898 807.11 531.597 797.396 534.938C771.355 543.894 745.457 546.05 718.071 544.685C706.504 544.108 695.018 542.492 683.468 541.697C661.773 540.205 639.112 542.184 618.453 549.214C597.974 556.183 579.895 567.806 563.884 582.229C554.939 590.288 549.205 598.23 541.192 606.6C540.265 607.568 539.032 609.163 537.707 609.331L537.912 607.895Q539.661 602.66 542.192 597.756C552.083 578.359 568.078 559.723 585.75 547.078Q590.125 543.954 594.744 541.205Q599.363 538.456 604.195 536.101Q609.027 533.746 614.038 531.8Q619.049 529.855 624.205 528.334C668.059 515.029 704.176 527.771 747.941 530.159C774.464 531.606 800.233 528.655 825.547 520.548Z"/>
		<path fill="#6F4C9F" d="M671.361 817.167C678.943 816.527 686.58 818.067 693.101 822.048Q693.846 822.5 694.568 822.989Q695.29 823.478 695.986 824.002Q696.682 824.526 697.352 825.085Q698.021 825.643 698.662 826.234Q699.302 826.825 699.912 827.448Q700.523 828.07 701.101 828.722Q701.679 829.374 702.225 830.054Q702.77 830.734 703.28 831.441Q703.791 832.147 704.265 832.879Q704.74 833.61 705.177 834.364Q705.615 835.118 706.014 835.892Q706.413 836.667 706.773 837.461Q707.134 838.255 707.453 839.066Q707.773 839.877 708.053 840.702Q708.332 841.528 708.569 842.367Q708.807 843.205 709.002 844.055Q709.187 844.878 709.33 845.709Q709.474 846.54 709.577 847.377Q709.68 848.214 709.742 849.055Q709.804 849.896 709.825 850.739Q709.845 851.582 709.824 852.425Q709.804 853.268 709.742 854.109Q709.679 854.951 709.576 855.788Q709.473 856.625 709.328 857.455Q709.184 858.286 709 859.109Q708.815 859.932 708.59 860.745Q708.365 861.558 708.1 862.358Q707.836 863.159 707.532 863.946Q707.229 864.733 706.887 865.504Q706.545 866.275 706.166 867.028Q705.787 867.782 705.372 868.516Q704.956 869.249 704.505 869.962C698.61 879.294 689.811 884.001 679.307 886.427C670.595 886.987 662.046 885.863 654.776 880.698C647.153 875.284 642.406 866.771 640.979 857.603Q640.842 856.722 640.749 855.836Q640.656 854.949 640.606 854.059Q640.557 853.169 640.552 852.277Q640.547 851.386 640.586 850.496Q640.625 849.605 640.709 848.717Q640.792 847.83 640.919 846.948Q641.046 846.065 641.217 845.19Q641.387 844.315 641.601 843.45Q641.815 842.585 642.071 841.731Q642.327 840.877 642.626 840.037Q642.924 839.197 643.264 838.373Q643.603 837.549 643.983 836.742Q644.363 835.936 644.783 835.149Q645.202 834.363 645.66 833.598Q646.118 832.833 646.613 832.092Q647.109 831.351 647.64 830.635C653.601 822.538 661.612 818.696 671.361 817.167ZM678.218 873.955C684.537 872.512 689.736 869.97 693.197 864.19C696.418 858.812 697.122 852.031 695.533 846.012Q695.4 845.491 695.24 844.978Q695.081 844.464 694.896 843.96Q694.71 843.455 694.5 842.96Q694.29 842.465 694.055 841.982Q693.82 841.498 693.561 841.027Q693.302 840.556 693.02 840.098Q692.738 839.641 692.433 839.198Q692.128 838.755 691.801 838.328Q691.475 837.901 691.127 837.492Q690.779 837.082 690.411 836.69Q690.043 836.298 689.656 835.925Q689.269 835.552 688.863 835.199Q688.458 834.846 688.035 834.514Q687.612 834.182 687.174 833.871Q686.735 833.561 686.281 833.273Q685.827 832.985 685.359 832.72Q684.642 832.316 683.896 831.968Q683.15 831.62 682.38 831.33Q681.609 831.04 680.819 830.809Q680.029 830.579 679.223 830.409Q678.417 830.24 677.601 830.133Q676.785 830.025 675.963 829.981Q675.141 829.936 674.318 829.955Q673.495 829.973 672.676 830.054C666.131 831.723 660.648 834.212 656.997 840.265C653.744 845.66 653.131 852.278 654.778 858.306C656.304 863.893 659.822 868.898 664.979 871.667C669.102 873.881 673.615 874.428 678.218 873.955Z"/>
		<path fill="#6F4C9F" d="M804.772 816.935C806.297 816.977 807.984 817.157 809.418 817.693C811.164 818.345 812.535 819.262 813.316 821.013C814.88 824.521 798.395 870.01 795.672 876.573C793.929 880.774 791.391 885.953 786.828 887.616C785.255 888.189 783.643 888.139 782.159 887.316C779.621 885.909 777.983 883.013 776.798 880.47C774.511 875.562 773.39 870.098 771.878 864.911Q768.502 853.441 764.888 842.044C760.689 854.006 757.896 866.688 753.323 878.437C752.092 881.601 750.657 885.086 747.27 886.411C745.225 887.212 741.719 887.353 739.746 886.301C732.624 882.501 722.121 842.669 719.529 834.242C718.278 830.492 716.933 826.518 717.517 822.515C717.754 820.886 718.42 819.323 719.873 818.412C721.354 817.482 723.899 817.285 725.522 817.904C727.461 818.645 728.366 820.309 729.179 822.083C732.178 828.627 733.521 836.178 735.541 843.096C738.225 852.292 741.321 861.533 744.543 870.555Q748.647 857.066 752.272 843.441C753.887 837.38 755.171 830.849 757.501 825.029C758.558 822.391 760.437 818.2 763.433 817.312C764.699 816.936 765.721 817.321 766.811 817.961C775.064 822.812 782.845 858.892 785.063 869.115C788.734 857.398 797.561 824.164 804.772 816.935Z"/>
		<path fill="#6F4C9F" d="M244.343 817.258Q246.538 817.173 248.734 817.146C258.034 817.049 267.775 818.107 274.646 825.134C278.818 829.402 280.993 835.086 280.921 841.041Q280.913 841.64 280.875 842.238Q280.838 842.836 280.77 843.431Q280.703 844.026 280.605 844.617Q280.508 845.208 280.382 845.794Q280.255 846.379 280.1 846.958Q279.944 847.536 279.76 848.106Q279.576 848.676 279.363 849.236Q279.151 849.797 278.911 850.345Q278.671 850.894 278.404 851.43Q278.137 851.967 277.843 852.489Q277.55 853.011 277.23 853.518Q276.911 854.025 276.567 854.515Q276.223 855.005 275.855 855.478Q275.487 855.95 275.095 856.404Q274.704 856.858 274.291 857.291Q273.877 857.725 273.443 858.137C264.03 867.105 248.229 864.738 236.233 864.498C236.482 870.285 237.968 880.719 234.005 885.478C232.958 886.736 231.503 887.444 229.88 887.541C228.134 887.646 226.738 887.321 225.408 886.131C222.774 883.772 222.661 880.048 222.509 876.729C222.187 869.662 222.489 862.497 222.48 855.415C222.468 846.928 221.928 837.98 223.052 829.579C223.414 826.875 223.881 823.366 225.862 821.36C230.526 816.64 238.237 817.373 244.343 817.258ZM235.914 852.423C244.27 852.65 254.373 853.989 262.23 850.689C265.115 848.754 267.586 846.362 268.249 842.8C268.773 839.989 267.953 836.658 266.203 834.403C263.664 831.132 259.38 830.067 255.453 829.689C250.27 829.19 244.887 829.57 239.692 829.774C238.426 829.867 237.118 829.7 236.079 830.451C235.721 837.75 235.904 845.115 235.914 852.423Z"/>
		<path fill="#6F4C9F" d="M413.827 817.696C418.662 817.049 423.657 817.904 428.503 817.896C433.152 817.889 437.696 817.126 442.377 817.553C444.595 817.755 447.006 818.23 448.424 820.129C449.569 821.662 449.897 823.71 449.515 825.562C447.067 837.448 417.303 825.631 409.955 831.692C407.11 834.038 408.001 842.021 408.053 845.455C416.213 845.678 437.994 843.353 443.804 848.243C445.031 849.276 445.628 850.723 445.629 852.305C445.631 853.704 445.08 854.95 444.037 855.882C438.463 860.859 415.827 858.509 408.196 858.194L407.972 866.125C408.04 867.779 408.186 869.767 408.751 871.325C409.06 872.176 409.636 873.123 410.432 873.595C416.156 876.986 438.375 871.245 446.81 875.817C447.953 876.437 448.936 877.369 449.198 878.694C449.508 880.259 448.742 882.133 447.894 883.433C446.563 885.473 444.488 886.281 442.176 886.725C433.803 888.334 408.121 887.724 401.441 882.885C397.716 880.187 396.216 874.785 395.62 870.442C394.189 860.015 392.927 831.184 399.452 823.077C402.85 818.855 408.825 818.307 413.827 817.696Z"/>
		<path fill="#6F4C9F" d="M352.712 843.008C357.882 837.034 368.77 820.76 375.499 817.923C377.232 817.192 378.934 817.138 380.641 818.011Q380.92 818.157 381.18 818.334Q381.441 818.51 381.679 818.715Q381.918 818.92 382.132 819.151Q382.346 819.382 382.532 819.635Q382.719 819.889 382.875 820.162Q383.031 820.435 383.156 820.724Q383.28 821.013 383.371 821.314Q383.462 821.615 383.518 821.925C384.68 828.569 365.318 846.576 360.843 852.061C366.093 858.444 372.394 864.059 377.846 870.302C380.254 873.06 385.258 878.356 384.504 882.29C384.067 884.568 381.766 886.049 380.064 887.379C379.477 887.457 378.629 887.624 378.023 887.518C371.418 886.366 357.13 867.528 352.732 861.733C346.938 868.578 338.714 880.241 331.492 885.009C329.734 886.17 327.48 886.978 325.372 886.356C322.636 885.547 321.687 882.583 320.69 880.228C327.243 870.264 335.857 861.419 343.978 852.752C338.551 846.216 321.842 831.442 322.073 823.279C322.156 820.352 323.999 818.616 326.071 816.815C334.066 819.089 346.803 836.356 352.712 843.008Z"/>
		<path fill="#6F4C9F" d="M180.518 258.998L223.964 259.068L223.942 302.661C209.633 301.664 194.801 302.439 180.45 302.477C180.002 288.035 180.466 273.454 180.518 258.998Z"/>
		<path fill="#6F4C9F" d="M180.488 216.002C179.464 230.032 179.862 244.601 180.279 258.661C170.397 258.474 160.466 258.712 150.581 258.794C145.941 258.832 140.856 259.286 136.27 258.642Q136.1 237.352 136.325 216.063C151.023 216.095 165.801 216.472 180.488 216.002Z"/>
		<path fill="#6F4C9F" d="M180.551 173.541L223.819 173.546C223.79 187.647 223.997 201.77 223.622 215.866C209.302 215.841 194.787 215.371 180.488 216.002L180.551 173.541Z"/>
		<path fill="#6F4C9F" d="M93.2736 173.236C107.572 173.829 121.947 173.449 136.253 173.295C135.752 187.412 135.955 201.586 136.164 215.708C121.965 215.492 107.697 215.337 93.5055 215.906C93.0921 201.815 92.5214 187.302 93.2736 173.236Z"/>
		<path fill="#6F4C9F" d="M550.497 817.741C555.261 817.571 570.131 816.498 573.515 819.661C574.738 820.803 575.509 822.31 575.54 823.999C575.575 825.845 574.696 827.81 573.343 829.062C568.613 833.443 552.865 830.169 546.459 830.251C543.446 830.29 540.151 830.851 538.047 833.207C534.913 836.716 535.593 841.73 535.843 846.036C542.863 845.857 564.182 843.793 569.429 847.886C571.005 849.116 572.429 851.165 572.433 853.238C572.435 854.368 571.94 855.437 571.162 856.239C567.634 859.88 560.668 858.908 556.023 858.839Q545.748 858.942 535.475 858.696C535.537 865.93 537.681 876.603 534.45 883.228C533.632 884.906 532.375 886.247 530.514 886.741C528.831 887.187 527.105 886.941 525.671 885.944C523.303 884.296 522.747 880.319 522.545 877.707C522.13 872.313 523.026 866.971 523.038 861.594C523.062 850.44 519.668 834.128 527.79 824.997C533.804 818.236 542.182 818.156 550.497 817.741Z"/>
		<path fill="#6F4C9F" d="M467.057 816.946C468.771 817.167 470.853 817.626 472.166 818.81C478.546 824.56 474.126 852.343 474.486 861.505C474.627 865.094 475.334 868.859 478.177 871.326C483.57 876.005 493.46 873.488 500.034 873.169C503.212 873.015 507.335 872.949 509.783 875.356C511.048 876.6 511.658 878.513 511.517 880.274C511.316 882.784 509.48 884.428 507.685 885.956C502.521 887.323 488.532 886.901 482.944 886.146C476.422 885.264 470.544 882.514 466.622 877.065Q465.94 876.109 465.36 875.087Q464.78 874.066 464.308 872.99Q463.836 871.914 463.478 870.795Q463.12 869.676 462.879 868.526C460.883 859.156 460.886 831.701 462.8 822.401C463.381 819.581 464.742 818.497 467.057 816.946Z"/>
		<path fill="#6F4C9F" d="M593.57 817.041C609.746 819.593 594.159 859.9 602.959 870.236C608.827 877.128 620.911 872.813 628.804 873.694C630.82 873.919 633.021 874.509 634.16 876.352C635.056 877.803 635.354 880.517 634.782 882.127C634.018 884.28 632.495 885.204 630.622 886.345C621.527 886.847 609.494 887.913 600.953 884.31C595.856 882.16 591.415 878.147 589.465 872.892C587.239 866.895 586.199 825.215 589.077 820.131C590.143 818.248 591.665 817.751 593.57 817.041Z"/>
		<path fill="#6F4C9F" d="M298.884 816.979Q300.122 816.995 301.358 817.077C303.33 817.226 305.562 818.022 306.614 819.856C308.137 822.51 308.543 879.091 307.294 882.906C306.582 885.081 304.823 885.782 302.946 886.778C302.817 886.789 302.688 886.805 302.558 886.81C300.479 886.892 298.181 886.708 296.643 885.141C295.745 884.224 295.449 883.293 295.273 882.05C293.848 871.97 294.94 860.978 294.955 850.783C294.969 842.106 294.187 833.452 294.812 824.777C295.094 820.87 295.936 819.549 298.884 816.979Z"/>
	</g>
	<g/>
</svg>
