<?xml version="1.0" encoding="utf-8" ?>
<svg xmlns="http://www.w3.org/2000/svg" xmlns:xlink="http://www.w3.org/1999/xlink" width="1312" height="736">
	<g>
		<path fill="#7359E1" d="M1025.54 327.003C1028.45 326.278 1030.97 326.334 1033.69 327.654C1045.32 333.31 1051.25 358.096 1055.07 369.536C1057.89 377.996 1072.71 420.303 1069.31 427.106C1084.51 415.299 1091.17 340.129 1114.29 327.893C1116.19 326.886 1118.28 326.565 1120.34 327.309C1125.27 329.093 1128.67 335.435 1130.87 339.894C1135.55 349.356 1159.79 417.073 1157.31 424.372C1170.98 416.128 1179.36 351.465 1196.6 332.788C1198.98 330.208 1202.47 327.255 1206.19 327.238C1208.42 327.228 1210.37 328.207 1211.95 329.718C1215.69 333.292 1217.04 338.912 1217.13 343.915C1217.3 352.661 1211.62 374.909 1206 380.813C1206.01 380.889 1206.03 380.964 1206.03 381.041C1206.47 385.174 1201.59 396.342 1200.07 400.776C1193.06 421.285 1180.87 462.117 1167.5 478.326C1165.57 480.669 1162.89 483.106 1159.69 483.251C1137.47 484.254 1129.44 399.666 1115.92 387.603C1115.8 387.492 1115.67 387.389 1115.54 387.283C1115.81 392.836 1093.82 454.277 1090.44 461.687C1087.97 467.121 1084.47 473.414 1080.47 477.866C1078.08 480.525 1075.05 482.828 1071.33 482.871C1068.61 482.902 1066.36 480.979 1064.57 479.125C1061.68 476.115 1059.53 472.464 1057.75 468.707C1048.96 450.095 1017.23 357.028 1017.92 338.583C1018.11 333.381 1021.93 330.252 1025.54 327.003Z"/>
		<path fill="#7359E1" d="M521.556 329.458Q524.429 329.239 527.31 329.248Q529.18 329.23 531.048 329.305Q532.917 329.379 534.779 329.545Q536.642 329.711 538.494 329.968Q540.346 330.225 542.184 330.573Q544.021 330.921 545.839 331.359Q547.657 331.797 549.451 332.323Q551.245 332.85 553.012 333.464Q554.778 334.078 556.512 334.778Q558.246 335.478 559.943 336.263Q561.64 337.047 563.297 337.914Q564.954 338.781 566.566 339.728Q568.179 340.675 569.742 341.7Q571.306 342.725 572.818 343.826Q574.329 344.927 575.785 346.101Q577.24 347.274 578.636 348.518Q580.033 349.762 581.366 351.073C592.555 362.247 602.849 379.789 602.709 396.046C602.663 401.347 600.975 406.445 597.106 410.178C593.17 413.976 587.951 415.637 582.668 416.532C569.535 418.755 555.459 417.447 542.161 417.28L485.783 416.938C487.704 421.67 489.685 426.207 492.482 430.497C499.156 440.733 509.167 448.217 521.268 450.675C538.441 454.163 554.087 446.487 567.94 437.19C569.103 436.566 570.48 436.051 571.768 435.747C575.188 434.938 578.726 435.712 581.622 437.646C585.186 440.027 588.541 444.167 589.28 448.471C589.917 452.178 588.59 455.598 586.412 458.559C577.641 470.487 557.666 477.203 543.622 479.461C523.438 482.706 503.739 478.501 487.171 466.392C470.977 454.557 459.761 437.037 456.687 417.116C453.482 396.339 457.812 375.123 470.34 358.084C482.673 341.309 501.365 332.557 521.556 329.458ZM485.621 388.25Q510.672 388.474 535.723 388.224L573.614 388.272C564.528 374.899 555.543 362.216 538.489 358.838C533.602 357.87 528.48 357.787 523.529 358.275C509.319 361.365 498.118 368.092 490.151 380.537C488.546 383.044 487.088 385.66 485.621 388.25Z"/>
		<path fill="#7359E1" d="M127.086 278.919Q140.985 278.545 154.889 278.535C179.925 278.568 207.939 281.237 226.529 299.995C239.364 312.947 245.854 330.7 245.688 348.815Q245.677 350.477 245.584 352.136Q245.49 353.795 245.315 355.448Q245.141 357.1 244.884 358.742Q244.628 360.384 244.291 362.012Q243.954 363.639 243.538 365.248Q243.121 366.856 242.625 368.443Q242.13 370.029 241.556 371.589Q240.983 373.148 240.334 374.678Q239.684 376.208 238.96 377.704Q238.236 379.199 237.439 380.658Q236.642 382.116 235.774 383.533Q234.906 384.95 233.969 386.323Q233.033 387.696 232.029 389.02Q231.026 390.345 229.958 391.619Q228.891 392.893 227.762 394.112Q226.633 395.332 225.445 396.494C198.864 422.561 156.477 417.402 122.444 416.996C123.165 432.55 125.033 449.206 121.513 464.53C120.426 469.265 118.559 474.798 114.148 477.45C111.72 478.91 108.757 479.189 106.035 478.512C101.519 477.388 98.1628 474.224 95.7666 470.377C94.4559 467.259 93.9182 463.789 93.5214 460.447C91.9353 447.089 90.7273 403.137 98.7096 393.469C109.051 380.943 162.242 389.011 180.07 386.919C191.193 385.613 202.219 380.838 209.238 371.843C215.782 363.457 218.463 351.718 217.175 341.243C210.072 283.453 118.042 321.211 96.3691 303.63C94.0107 301.717 92.3467 299.203 92.1157 296.123C91.859 292.701 93.4033 289.054 95.6784 286.541C103.002 278.454 117.037 279.309 127.086 278.919Z"/>
		<path fill="#7359E1" d="M329.881 334.345C331.227 334.275 332.594 334.211 333.937 334.356C349.426 336.039 374.538 370.971 384.512 383.105C390.699 374.663 396.908 366.16 403.681 358.174C410.61 350.006 422.91 335.837 434.358 335.091C437.694 334.874 441.201 335.949 443.665 338.25C445.677 340.129 446.509 342.552 446.538 345.266C446.726 362.408 414.789 392.484 402.626 404.794C413.894 419.042 428.43 430.795 439.388 446.347C443.278 451.867 447.398 459.109 446.075 466.117C445.04 471.596 441.648 473.988 437.303 476.93C435.993 477.315 434.631 477.546 433.271 477.348C418.173 475.148 393.831 439.131 384.748 426.889C374.997 438.892 365.57 451.54 354.964 462.789C349.675 468.398 342.126 476.542 333.881 476.657C330.761 476.7 327.818 475.682 325.584 473.463C323.071 470.967 322.134 467.499 322.191 464.033C322.449 448.327 353.458 416.598 365.183 405.273C355.296 393.105 343.918 382.187 333.963 370.053C328.537 363.439 321.463 354.341 322.49 345.299C323.09 340.015 325.852 337.467 329.881 334.345Z"/>
		<path fill="#7359E1" d="M921.409 323.801C935.736 322.886 949.205 324.382 962.555 329.893C979.942 337.071 997.061 351.117 1004.22 368.899C1005.08 371.031 1006.03 373.563 1005.06 375.79C1007.88 373.828 1009.53 370.884 1011.27 367.992L1011.66 368.922C1010.93 375.169 1002.76 382.875 998.153 386.955C985.121 398.499 967.686 401.899 950.697 400.889C941.078 399.597 931.384 398.449 921.859 396.576C898.921 392.065 876.231 386.014 852.792 384.814C859.127 380.32 862.546 363.774 867.735 355.821C879.613 337.613 900.787 328.072 921.409 323.801Z"/>
		<path fill="#7359E1" d="M710.265 277.643C726.838 276.412 746.123 276.712 762.802 277.697C770.882 278.175 782.274 279.222 787.858 285.754C789.824 288.054 790.61 290.875 790.372 293.87C790.121 297.039 788.625 299.76 786.17 301.762C773.17 312.369 724.134 308.323 707.49 306.731Q707.406 333.508 707.756 360.283C725.513 359.303 743.742 360.086 761.543 360.085C767.779 360.063 776.259 361.485 781.194 365.426C783.755 367.471 785.279 370.318 785.599 373.576C785.774 375.365 785.524 376.781 784.299 378.183C775.694 388.032 695.915 389.779 678.036 390.672L677.709 335.387C677.561 322.918 676.59 309.806 678.152 297.429C678.717 292.945 679.847 287.155 682.841 283.61C688.106 277.374 702.643 278.02 710.265 277.643Z"/>
		<path fill="#7359E1" d="M1011.41 410.915C1012.6 410.967 1012.83 411.051 1013.85 411.679C1014.11 412.389 1014.35 413.13 1014.42 413.89C1015.25 424.266 1001.22 445.629 994.91 453.522Q993.7 455.015 992.419 456.447Q991.138 457.879 989.789 459.248Q988.44 460.617 987.027 461.919Q985.614 463.221 984.139 464.453Q982.664 465.686 981.132 466.845Q979.599 468.004 978.013 469.088Q976.426 470.172 974.788 471.179Q973.151 472.185 971.467 473.11Q969.783 474.036 968.056 474.879Q966.329 475.723 964.564 476.481Q962.798 477.24 960.998 477.913Q959.198 478.585 957.367 479.17Q955.536 479.755 953.68 480.25Q951.823 480.746 949.944 481.151Q948.066 481.556 946.17 481.87Q944.274 482.184 942.365 482.406C908.247 486.127 895.288 475.143 870.358 455.118C870.359 455.005 870.37 454.892 870.36 454.78C869.811 449.089 856.472 425.674 851.912 421.714C861.636 422.437 871.208 422.914 880.878 424.384C916.254 429.759 957.684 441.722 992.05 426.436C998.421 423.602 1008.83 417.551 1011.41 410.915Z"/>
		<path fill="#7359E1" d="M629.752 276.729C631.998 276.484 634.447 276.468 636.687 276.783C640.494 277.32 644.408 278.782 646.769 281.973C649.079 285.094 649.123 290.91 649.367 294.691C651.464 327.191 649.807 359.96 650.003 392.514C650.108 410.102 650.673 427.705 650.417 445.292C650.316 452.236 650.614 459.973 649.361 466.778C648.417 471.907 644.568 474.897 640.483 477.642C638.21 477.954 635.871 478.046 633.589 477.763C629.77 477.29 625.906 475.726 623.601 472.52C621.094 469.035 621.132 461.883 620.901 457.67C619.099 424.705 620.854 391.361 620.825 358.339L620.757 314.781C620.741 305.873 620.136 296.276 621.501 287.475C622.305 282.288 625.726 279.652 629.752 276.729Z"/>
		<path fill="#7359E1" d="M279.29 335.143Q283.18 335.171 287.027 335.752C290.263 336.268 293.457 337.806 295.346 340.573C301.491 349.578 299.457 457.604 296.981 470.603C294.576 473.643 291.964 475.798 288.526 477.593C285.486 477.762 282.313 477.827 279.323 477.168C276.34 476.51 273.159 474.863 271.658 472.072C266.898 463.221 267.414 354.457 270.422 343.794C271.658 339.415 275.595 337.234 279.29 335.143Z"/>
		<path fill="#7359E1" d="M818.044 277.039C822.61 276.377 827.118 276.095 831.06 278.882C835.369 281.928 836.875 286.17 837.743 291.127C839.368 300.403 839.734 379.136 836.64 383.565C833.224 383.933 829.763 383.585 826.344 383.376C819.805 381.838 812.589 381.91 805.909 381.671C806.008 381.575 806.114 381.486 806.207 381.384C813.78 373.08 809.785 337.026 809.282 324.822C808.626 308.946 806.49 289.582 818.044 277.039Z"/>
		<path fill="#7359E1" d="M809.337 418.603C815.775 418.101 830.335 418.241 835.948 421.725C836.28 422.092 836.593 422.461 836.865 422.876C841.314 429.663 839.316 455.349 837.911 463.268C837.028 468.243 835.93 471.634 831.697 474.591C831.683 474.65 831.673 474.71 831.654 474.769C831.174 476.296 830.369 477.156 828.957 477.895C826.182 479.349 822.18 479.484 819.243 478.438C815.564 477.128 812.639 474.028 810.988 470.559C805.519 459.067 809.717 443.705 809.765 431.494C809.779 427.865 808.188 421.921 809.337 418.603Z"/>
		<path fill="#7359E1" d="M678.187 426.131C687.677 425.972 697.182 426.045 706.675 426.011C708.819 440.821 709.719 460.4 702.703 473.977C699.346 476.482 694.476 478.881 690.191 478.712C687.368 478.6 684.96 477.272 683.113 475.173C673.652 464.428 677.326 439.46 678.187 426.131Z"/>
		<path fill="#7359E1" d="M348.351 200.769C357.883 200.446 367.424 200.844 376.954 201.115C376.757 212.352 378.151 224.544 376.726 235.635C375.108 236.508 372.922 236.206 371.119 236.195C361.062 235.954 350.979 236.188 340.92 236.298Q341.514 218.774 341.312 201.241L348.351 200.769Z"/>
		<path fill="#7359E1" d="M269.152 272.528C280.586 272.079 292.162 272.432 303.611 272.417C303.141 283.916 304.143 296.214 301.351 307.437Q284.432 307.384 267.528 308.118C267.321 299.56 265.238 280.131 269.152 272.528Z"/>
		<path fill="#7359E1" d="M306.314 237.315C317.703 236.959 329.15 237.112 340.546 237.039C340.067 241.821 340.855 270.116 339.354 272.242L304.267 272.226C304.354 260.966 303.693 249.118 304.855 237.943L306.314 237.315Z"/>
	</g>
	<g/>
</svg>
